<svg id="Layer_1" data-name="Layer 1" xmlns="http://www.w3.org/2000/svg" viewBox="0 0 915.7 607.33"><defs><style>.cls-1{fill:#fff;}</style></defs><path d="M549.63,222H688.18V669.4H549.63Z" transform="translate(-549.63 -222.01)"/><path d="M1086,222h127V453l92.77-107.65h152.9L1342.35,458.83l123,210.57H1325.38l-65.64-129.92L1213,585.17V669.4H1086Z" transform="translate(-549.63 -222.01)"/><path d="M1059.19,463.41v206H716.48V345.3H832.14v52.8q25.93-32.34,52.49-46.23T949.32,338q51.57,0,80.72,30.67T1059.19,463.41Z" transform="translate(-549.63 -222.01)"/><path class="cls-1" d="M810.4,542.36q0-28.74,0-57.48c.06-43.43,34.35-78.22,77.33-78.47s77.8,34.34,78.09,77.72q.39,58.49,0,117c-.29,38.56-28,70.85-65.17,76.72a77.45,77.45,0,0,1-86.08-52,83.26,83.26,0,0,1-4-24C810,582,810.4,562.19,810.4,542.36ZM824,530.06H870.8c4.16,0,8.34-.11,12.49.12,3.93.21,6.16,2.69,6.22,6.49.06,3.53-1.89,6-5.59,6.57a29,29,0,0,1-4.47.26q-25,0-50,0h-5.31v23.35h5.74c17.16,0,34.33,0,51.49,0,5.54,0,9,3.28,8.08,7.63s-4,5.72-8.15,5.7c-17.16-.06-34.32,0-51.48,0-1.92,0-3.83.16-5.6.24v23.3h5.84c16.83,0,33.66,0,50.49,0,1.94,0,4.67-.1,5.65,1,1.63,1.89,3.16,4.86,2.9,7.17-.43,3.76-3.74,5.08-7.49,5.07q-24.75-.06-49.49,0h-6.19c.45,1.74.68,2.86,1,3.94,9.74,29.49,39.86,48.38,69.85,43.82,32.23-4.9,55.32-31.09,55.6-64,.33-38.66.47-77.32,0-116-.38-28.43-14-49.26-40.34-60-25.58-10.48-49.23-5.18-69.14,13.95-15.26,14.67-20.71,33.16-18.75,54.54h5.26q24.75,0,49.49,0c1.66,0,3.77-.51,4.89.29,2.21,1.58,5.25,3.84,5.39,6s-2.52,4.86-4.57,6.62c-1.12,1-3.5.58-5.32.58-16.66,0-33.32,0-50,.05-1.74,0-3.49.18-5.35.29Z" transform="translate(-549.63 -222.01)"/><path d="M983.66,669.4A107.57,107.57,0,0,1,972,688.54C954.65,711.34,930.78,722,903,725c-2.15.23-4.31.42-6.46.65a7.79,7.79,0,0,0-1.29.42v89.76h5.37q25.5,0,51,0c1.33,0,3.12-.39,3.9.3,2,1.83,5,4.12,5.06,6.28s-2.7,4.81-4.86,6.38c-1.34,1-3.86.38-5.86.38q-62.47,0-125,0c-.84,0-1.67,0-2.5,0-4.1-.16-6.63-2.14-6.89-6.36-.25-4,2.39-6.78,6.86-6.88,8.16-.17,16.32-.06,24.49-.07h34.44V726c-6-.8-11.74-1.3-17.43-2.37C829,717.13,806,698.24,792.73,669.4h15.08c7.47,13.89,18.19,25.32,33.8,32.43,36.83,16.76,73.35,15.85,106.79-9a72.36,72.36,0,0,0,20.35-23.46Z" transform="translate(-549.63 -222.01)"/><path class="cls-1" d="M798,643.87a119.56,119.56,0,0,0,9.85,25.53H792.73A135.28,135.28,0,0,1,785,647.59a164.64,164.64,0,0,1-4.94-54c.16-2.3,1-5.26,2.62-6.57s4.76-1.58,6.84-1c3.55,1,4.1,4.37,3.85,7.79A149.62,149.62,0,0,0,798,643.87Z" transform="translate(-549.63 -222.01)"/><path class="cls-1" d="M996.09,592.66c-.18,12.63,0,25.36-1.54,37.86a125.34,125.34,0,0,1-10.89,38.88H968.75A101.65,101.65,0,0,0,979.46,638c2.48-13.83,2.45-28.11,3.51-42.19.07-.82-.1-1.66-.11-2.49-.08-4.82,2.27-7.82,6.26-8S996.16,587.81,996.09,592.66Z" transform="translate(-549.63 -222.01)"/></svg>