<?xml version="1.0" encoding="utf-8"?>
<!-- Generator: Adobe Illustrator 24.3.0, SVG Export Plug-In . SVG Version: 6.00 Build 0)  -->
<svg version="1.1" id="Layer_1" xmlns="http://www.w3.org/2000/svg" xmlns:xlink="http://www.w3.org/1999/xlink" x="0px" y="0px"
	 viewBox="0 0 24 24" style="enable-background:new 0 0 24 24;" xml:space="preserve">
<style type="text/css">
	.st0{fill:#FFFFFF;}
</style>
<path class="st0" d="M21,15.9v4c0,0.3-0.1,0.5-0.3,0.8S20.2,21,20,21c-2.1,0-4.1-0.5-6.2-1.4c-2-0.9-3.9-2.2-5.6-3.9
	c-1.7-1.7-3-3.5-3.9-5.6C3.5,8.2,3,6.1,3,4c0-0.3,0.1-0.5,0.3-0.8S3.8,3,4,3h4c0.2,0,0.4,0.1,0.6,0.2C8.9,3.4,9,3.6,9,3.8l0.7,3.5
	c0,0.3,0,0.5,0,0.7c0,0.2-0.1,0.4-0.3,0.5L7,10.9c0.3,0.6,0.7,1.2,1.2,1.8c0.5,0.6,1,1.1,1.5,1.7c0.5,0.5,1,1,1.6,1.4
	s1.2,0.8,1.8,1.2l2.4-2.3c0.1-0.2,0.3-0.3,0.6-0.3c0.2-0.1,0.5-0.1,0.7-0.1l3.5,0.7c0.2,0.1,0.4,0.2,0.6,0.4
	C20.9,15.5,21,15.7,21,15.9z"/>
</svg>
