<?xml version="1.0" encoding="utf-8"?>
<!-- Generator: Adobe Illustrator 24.3.0, SVG Export Plug-In . SVG Version: 6.00 Build 0)  -->
<svg version="1.1" id="Layer_1" xmlns="http://www.w3.org/2000/svg" xmlns:xlink="http://www.w3.org/1999/xlink" x="0px" y="0px"
	 viewBox="0 0 243 243" style="enable-background:new 0 0 243 243;" xml:space="preserve">
<path d="M71.6,118c0,0.1,0,0.2-0.1,0.2l-2.4-0.1c0,1.4-0.1,2.5-0.1,3.4c0,0.5,0,1.3,0.1,2.4c0,1.1,0.1,1.9,0.1,2.4
	c0,0.1-0.1,0.1-0.2,0.1h-0.4c-0.1,0-0.3,0-0.4,0c-0.1,0-0.3,0-0.4,0h-0.4c-0.1,0-0.2-0.1-0.2-0.2c0-0.5,0-1.3,0.1-2.4
	s0.1-1.8,0.1-2.4c0-0.8,0-1.9-0.1-3.4c-1.2,0.1-2.1,0.1-2.6,0.1c0,0-0.1,0-0.1-0.1c0-0.1,0-0.2,0.1-0.4l0.1-0.4
	c0-0.2,0.1-0.4,0.1-0.7c0-0.1,0.1-0.1,0.1-0.1h0.1c1.6,0.1,2.7,0.2,3.2,0.2s1.2,0,2.2-0.1l0.9-0.1c0.1,0,0.2,0,0.2,0.1
	c0,0.2,0,0.4,0,0.7c0,0.1,0,0.2,0,0.3C71.6,117.8,71.6,117.9,71.6,118z"/>
<path d="M81.8,125c0,0.1,0,0.2-0.1,0.3l-0.1,0.3c0,0.2,0,0.4-0.1,0.7c0,0.1-0.1,0.1-0.2,0.1h-0.3c-0.9-0.1-1.7-0.1-2.6-0.1H77h-1.5
	c-0.2,0-0.2-0.1-0.2-0.2c0-0.5,0-1.3,0.1-2.3s0.1-1.8,0.1-2.3s0-1.5-0.1-2.9c0-0.4,0-0.9-0.1-1.6v-0.1c0-0.1,0-0.2,0.2-0.2h1.4h1.4
	h1.4h1.4c0.2,0,0.3,0.1,0.3,0.2c0.1,0.4,0.1,0.8,0.2,1.1c0,0.1,0,0.1-0.1,0.2c0,0,0,0,0,0c-0.4,0-1,0-1.8-0.1s-1.4-0.1-1.8-0.1
	c-0.2,0-0.5,0-0.7,0.2c-0.1,0.2-0.2,0.5-0.2,0.8v1c0,0.2,0,0.3,0,0.5c0,0.1,0.2,0.2,0.4,0.2h0.5c0.9,0,1.7,0,2.4,0
	c0.3,0,0.6,0,1-0.1c0.1,0,0.1,0,0.1,0.1s0,0.4,0,0.7s0,0.5,0,0.7s-0.1,0.1-0.2,0.1s-0.3,0-0.6-0.1s-0.8,0-1.7,0s-1.2,0-1.4,0
	c-0.2,0-0.3,0.1-0.3,0.3c0,0.2,0,0.4,0,0.5v1c0,0.5,0.1,0.8,0.2,0.9c0.3,0.1,0.6,0.2,0.9,0.1h0.8c0.3,0,1.2-0.1,2.7-0.2h0.1
	C81.8,124.8,81.8,124.8,81.8,125z"/>
<path d="M93.3,124.8c0,0.1-0.1,0.2-0.1,0.2c-0.8,1-2,1.6-3.3,1.6c-1.3,0-2.5-0.5-3.3-1.5c-1.5-2.1-1.5-4.9,0-7c0.8-1,2-1.6,3.3-1.5
	c1.2-0.1,2.4,0.5,3.2,1.4c0.1,0.1,0.1,0.2,0.1,0.2c-0.1,0.2-0.2,0.5-0.4,0.7c-0.2,0.4-0.4,0.6-0.4,0.6s-0.2-0.1-0.4-0.3
	c-0.2-0.2-0.5-0.5-0.8-0.6c-0.4-0.2-0.9-0.3-1.3-0.3c-0.8,0-1.6,0.3-2.1,1c-0.5,0.7-0.7,1.5-0.7,2.3c0,0.8,0.2,1.7,0.7,2.4
	c0.5,0.7,1.3,1.1,2.1,1.1c0.5,0,0.9-0.1,1.3-0.3c0.3-0.2,0.6-0.4,0.8-0.6c0.1-0.1,0.2-0.2,0.4-0.3c0.2,0.2,0.3,0.4,0.4,0.6
	C93,124.3,93.2,124.5,93.3,124.8z"/>
<path d="M105.5,126.2c0,0.1-0.1,0.2-0.2,0.2H105c-0.1,0-0.2,0-0.4,0c-0.1,0-0.3,0-0.4,0h-0.4c-0.1,0-0.1,0-0.2-0.1c0,0,0,0,0,0
	c0-0.4,0-1,0-1.9s0-1.4,0-1.8c0-0.2,0-0.3-0.2-0.3c-0.8-0.1-1.6-0.1-2.4-0.1c-0.8,0-1.6,0-2.4,0.1c-0.1,0-0.2,0.1-0.2,0.3
	c0,0.4,0,1,0,1.8c0,0.8,0,1.4,0,1.8c0,0.1-0.1,0.2-0.2,0.2H98c-0.1,0-0.3,0-0.4,0c-0.1,0-0.2,0-0.4,0h-0.4c-0.1,0-0.2-0.1-0.2-0.2
	c0-0.5,0-1.3,0.1-2.3s0.1-1.8,0.1-2.3s0-1.3-0.1-2.4s-0.1-1.9-0.1-2.4c0-0.1,0.1-0.2,0.2-0.2h0.4c0.1,0,0.3,0,0.4,0
	c0.1,0,0.3,0,0.4,0h0.4c0.1,0,0.2,0,0.2,0.1c0,0.4,0,1,0,1.8s-0.1,1.4-0.1,1.8c0,0.1,0,0.2,0.2,0.2c0.8,0,1.6,0,2.4,0
	c0.8,0,1.6,0,2.4,0c0.1,0,0.2-0.1,0.2-0.3c0-0.4,0-1,0-1.7c0-0.8,0-1.4,0-1.7c0-0.1,0-0.1,0.2-0.1h0.4c0.1,0,0.3,0,0.4,0
	c0.1,0,0.2,0,0.4,0h0.4c0.1,0,0.2,0,0.2,0.2c0,0.5,0,1.3-0.1,2.4s-0.1,1.9-0.1,2.4s0,1.3,0.1,2.3S105.5,125.7,105.5,126.2z"/>
<path d="M122.7,118.1c0,0.1-0.1,0.1-0.2,0.1c-0.3,0-0.9,0-1.8-0.1s-1.3,0-1.8,0h-0.5H118c-0.1,0-0.1,0.2-0.1,0.4v1.7
	c0,0.3,0.1,0.5,0.2,0.5c0.4,0,1.1,0,2-0.1s1.6-0.1,2-0.1c0.1,0,0.1,0,0.1,0.1s0,0.2,0,0.3s0,0.3,0,0.3s0,0.2,0,0.4s0,0.3,0,0.4
	s0,0.1-0.1,0.1h-1.4h-1.4c-0.6,0-0.9,0-1,0s-0.3,0.1-0.3,0.2c0,0.4,0,1,0,1.9c0,0.8,0,1.4,0,1.8c0,0.1-0.1,0.2-0.2,0.2h-0.4h-0.4
	c-0.1,0-0.2,0-0.4,0h-0.4c-0.1,0-0.2-0.1-0.2-0.1c0-0.5,0-1.3,0.1-2.3s0.1-1.8,0.1-2.3s0-2-0.1-4.6V117c0-0.1,0-0.2,0.2-0.2h0.9
	c0.7,0,1.4,0,2,0c0.8,0,1.9-0.1,3.2-0.1c0.1,0,0.3,0.1,0.3,0.2c0,0,0,0,0,0c0,0.2,0,0.4,0,0.6C122.6,117.7,122.6,117.9,122.7,118.1z
	"/>
<path d="M134.3,116.8c0,0.5,0,1.3-0.1,2.4s-0.1,1.9-0.1,2.4c0,0.2,0,0.4,0,0.8s0,0.6,0,0.8c0,0.7,0,1.4-0.3,2
	c-0.3,0.6-0.9,1-1.6,1.2c-0.7,0.1-1.4,0.2-2.1,0.2c-1.6,0-2.7-0.3-3.2-0.8c-0.5-0.7-0.7-1.6-0.6-2.5v-0.8c0-0.4,0-0.6,0-0.8
	c0-0.5,0-1.5-0.1-3c0-0.4,0-0.9-0.1-1.7c0,0,0-0.1,0-0.1c0-0.1,0.1-0.2,0.2-0.2h1.5c0.1,0,0.2,0,0.2,0.1c0,0.7,0,1.7,0,3.1
	s-0.1,2.4-0.1,3.1c-0.1,0.6,0.1,1.2,0.5,1.6c0.5,0.3,1.1,0.4,1.7,0.4c0.5,0,1.1-0.1,1.6-0.3c0.4-0.3,0.7-0.9,0.6-1.4
	c0-0.7,0-1.8,0-3.3s0-2.5,0-3.3c0-0.1,0.1-0.1,0.2-0.1c0.1,0,0.3,0,0.4,0h0.3c0.1,0,0.3,0,0.4,0h0.4
	C134.3,116.7,134.3,116.7,134.3,116.8z"/>
<path d="M144.9,118c0,0.1,0,0.2-0.1,0.2l-2.4-0.1c0,1.4-0.1,2.5-0.1,3.4c0,0.5,0,1.3,0.1,2.4s0.1,1.8,0.1,2.4c0,0.1-0.1,0.1-0.2,0.1
	h-0.4c-0.3,0-0.5,0-0.8,0h-0.4c-0.1,0-0.2,0-0.2-0.1c0,0,0,0,0,0c0-0.5,0-1.3,0.1-2.4s0.1-1.8,0.1-2.4c0-0.8,0-1.9-0.1-3.4
	c-1.2,0.1-2,0.1-2.6,0.1c-0.1,0-0.1,0-0.1-0.1c0-0.1,0-0.2,0.1-0.4l0.1-0.4c0-0.2,0.1-0.4,0.1-0.7c0-0.1,0.1-0.1,0.1-0.1h0.1
	c1.6,0.1,2.7,0.1,3.2,0.2c0.5,0,1.2,0,2.2-0.1l0.9-0.1c0.1,0,0.2,0,0.2,0.1c0,0.2,0,0.4,0,0.7c0,0.1,0,0.2,0,0.3
	C144.9,117.8,144.9,117.9,144.9,118z"/>
<path d="M156.4,116.8c0,0.5,0,1.3-0.1,2.4s-0.1,1.9-0.1,2.4c0,0.2,0,0.4,0,0.8v0.8c0,0.7,0,1.4-0.3,2c-0.3,0.6-0.9,1-1.6,1.2
	c-0.7,0.1-1.4,0.2-2.1,0.2c-1.6,0-2.7-0.3-3.2-0.8c-0.5-0.7-0.7-1.6-0.6-2.5c0-0.2,0-0.4,0-0.8s0-0.6,0-0.8c0-0.5,0-1.5-0.1-3
	c0-0.4,0-0.9-0.1-1.7c0,0,0-0.1,0-0.1c0-0.1,0.1-0.2,0.2-0.2h1.6c0.1,0,0.2,0,0.2,0.1c0,0.7,0,1.7,0,3.1s0,2.4,0,3.1
	c-0.1,0.6,0.1,1.2,0.5,1.6c0.5,0.3,1.1,0.4,1.7,0.4c0.5,0,1.1-0.1,1.6-0.3c0.4-0.3,0.7-0.9,0.6-1.4c0-0.7,0-1.8,0-3.3s0-2.5,0-3.3
	c0-0.1,0.1-0.1,0.2-0.1c0.1,0,0.3,0,0.4,0h0.3c0.1,0,0.2,0,0.4,0h0.4C156.4,116.7,156.4,116.7,156.4,116.8z"/>
<path d="M168.1,126.3c0,0,0,0.1-0.1,0.1h-0.4c-0.1,0-0.3,0-0.4,0c-0.1,0-0.3,0-0.4,0h-0.4c-0.1,0-0.2-0.1-0.2-0.2
	c-0.1-0.3-0.6-1.3-1.2-2.9c-0.1-0.2-0.3-0.3-0.5-0.3h-0.6c-0.4,0-0.8,0-1.1,0c-0.1,0-0.1,0.1-0.1,0.3s0,0.8,0,1.4s0.1,1.1,0.1,1.4
	c0,0.1,0,0.1-0.1,0.1c0,0,0,0,0,0H162h-0.4c-0.1,0-0.2,0-0.4,0h-0.4c-0.1,0-0.2-0.1-0.2-0.2c0-0.5,0-1.3,0.1-2.3s0.1-1.8,0.1-2.3
	c0-1.4-0.1-3-0.2-4.6v-0.1c0-0.1,0.1-0.1,0.3-0.1h1.8h1.8c0.9,0,1.7,0.2,2.4,0.7c0.7,0.6,1.1,1.4,1,2.3c0,0.5-0.1,1.1-0.3,1.6
	c-0.3,0.5-0.6,0.9-1.1,1.2c-0.1,0.1-0.1,0.1-0.1,0.2s0.3,0.7,0.8,1.8S168.1,126.2,168.1,126.3z M166.3,120.1
	c0.1-0.6-0.2-1.3-0.7-1.7c-0.6-0.2-1.3-0.4-1.9-0.3c-0.7,0-1.1,0.1-1.1,0.2s-0.1,0.9-0.1,2v1.3h0.1h0.4c0.4,0,0.9,0,1.4,0
	C165.6,121.7,166.3,121.1,166.3,120.1z"/>
<path d="M178.4,125c0,0.1,0,0.2-0.1,0.3c-0.1,0.2-0.1,0.3-0.1,0.3s0,0.4-0.1,0.7c0,0.1-0.1,0.1-0.2,0.1h-0.3
	c-0.9-0.1-1.7-0.1-2.6-0.1h-1.5h-1.5c-0.1,0-0.2-0.1-0.2-0.2c0-0.5,0-1.3,0.1-2.3c0.1-1,0.1-1.8,0.1-2.3s0-1.5-0.1-2.9
	c0-0.4,0-0.9-0.1-1.6v-0.1c0-0.1,0-0.2,0.2-0.2h1.4h1.4h1.4h1.4c0.2,0,0.3,0.1,0.4,0.2c0.1,0.4,0.1,0.8,0.1,1.1
	c0,0.1-0.1,0.2-0.1,0.2c-0.4,0-1,0-1.8-0.1s-1.4-0.1-1.8-0.1c-0.2,0-0.5,0-0.7,0.2c-0.1,0.2-0.2,0.5-0.1,0.8v1c0,0.2,0,0.3,0,0.5
	c0,0.1,0.2,0.2,0.4,0.2h0.5c0.9,0,1.7,0,2.4,0c0.3,0,0.6,0,1-0.1c0.1,0,0.1,0,0.1,0.1s0,0.4,0,0.7s-0.1,0.5-0.1,0.7
	s-0.1,0.1-0.2,0.1s-0.3,0-0.6-0.1s-0.8,0-1.7,0s-1.2,0-1.4,0c-0.2,0-0.3,0.1-0.3,0.3c0,0.2,0,0.4,0,0.5v1c0,0.5,0.1,0.8,0.2,0.9
	c0.3,0.1,0.6,0.2,0.9,0.1h0.8c0.3,0,1.2-0.1,2.7-0.2h0.1C178.3,124.8,178.4,124.8,178.4,125z"/>
<path d="M77,73.1c-11.4-5.3-23.7-8-36.2-8c-3.5-9.4-5.2-19.4-5.2-29.5c12.5,0,24.9,2.7,36.2,8C71.8,53.6,73.6,63.6,77,73.1z"/>
<path d="M141.5,31.3c-7.1,7.1-12.9,15.4-17.2,24.5c-4.3-11.8-11.1-22.5-20-31.3c4.3-9.1,10.1-17.4,17.2-24.5
	C130.4,8.8,137.2,19.5,141.5,31.3z"/>
<path d="M207.4,35.6c0,12.5-2.7,24.9-8,36.2c-10,0-20,1.8-29.5,5.2c5.3-11.3,8-23.7,8.1-36.2C187.4,37.3,197.4,35.6,207.4,35.6z"/>
<path d="M243,121.5c-8.8,8.9-19.5,15.7-31.3,20c-7.1-7.1-15.4-12.9-24.5-17.2c11.8-4.3,22.5-11.1,31.3-20
	C227.6,108.6,235.9,114.4,243,121.5z"/>
<path d="M207.4,207.4c-12.5,0-24.9-2.7-36.2-8c0-10-1.8-20-5.2-29.4c11.4,5.3,23.8,8,36.3,8C205.7,187.4,207.4,197.4,207.4,207.4z"
	/>
<path d="M138.7,218.5c-4.3,9.1-10.1,17.4-17.2,24.5c-8.9-8.8-15.7-19.5-20-31.3c7.1-7.1,12.9-15.4,17.2-24.5
	C123,199,129.8,209.7,138.7,218.5z"/>
<path d="M73,166c-5.3,11.4-8,23.7-8,36.3c-9.4,3.4-19.4,5.2-29.4,5.2c0-12.5,2.7-24.9,8-36.2C53.7,171.2,63.6,169.4,73,166z"/>
<path d="M55.8,118.7c-11.8,4.3-22.5,11.1-31.3,20c-9.1-4.3-17.4-10.1-24.5-17.2c8.8-8.9,19.5-15.7,31.3-20
	C38.4,108.6,46.7,114.5,55.8,118.7z"/>
</svg>
